<svg width="70" height="70" viewBox="0 0 70 70" fill="none" xmlns="http://www.w3.org/2000/svg">
<rect width="70" height="70" rx="35" fill="#4C40F7"/>
<path d="M46.8309 22.169L50.4972 22.9018C50.6941 22.9411 50.8559 23.0855 50.9128 23.2802C50.9415 23.3748 50.9441 23.4754 50.9202 23.5713C50.8963 23.6672 50.8469 23.7548 50.7772 23.8249L47.7738 26.8305C47.4144 27.1892 46.9274 27.3906 46.4197 27.3905H43.9281L37.6719 33.649C37.7912 34.0996 37.8132 34.5706 37.7363 35.0304C37.6593 35.4902 37.4853 35.9284 37.2258 36.3156C36.9663 36.7029 36.6272 37.0305 36.2311 37.2764C35.8351 37.5224 35.3912 37.6812 34.9289 37.7421C34.4667 37.8031 33.9968 37.7648 33.5506 37.6299C33.1043 37.495 32.6919 37.2666 32.3409 36.9598C31.9898 36.653 31.7081 36.275 31.5147 35.8508C31.3212 35.4266 31.2203 34.9661 31.2188 34.4999C31.2191 33.9965 31.3351 33.5 31.558 33.0486C31.7808 32.5973 32.1044 32.2032 32.5038 31.8968C32.9032 31.5904 33.3677 31.38 33.8613 31.2818C34.355 31.1835 34.8647 31.2001 35.3509 31.3302L41.6094 25.0696V22.5824C41.6094 22.0749 41.8106 21.5871 42.1694 21.2283L45.175 18.2227C45.2451 18.153 45.3327 18.1036 45.4286 18.0797C45.5245 18.0558 45.6251 18.0584 45.7197 18.0871C45.9144 18.144 46.0588 18.3058 46.0981 18.5027L46.8309 22.169Z" fill="white"/>
<path d="M21.375 34.5C21.3772 36.3768 21.782 38.2313 22.5619 39.9383C23.3418 41.6454 24.4787 43.1654 25.896 44.3957C27.3132 45.626 28.9779 46.5381 30.7776 47.0704C32.5773 47.6026 34.4703 47.7427 36.3288 47.4812C38.1873 47.2197 39.968 46.5627 41.551 45.5544C43.134 44.5462 44.4823 43.2102 45.505 41.6365C46.5278 40.0629 47.2011 38.2882 47.4796 36.4322C47.7582 34.5762 47.6354 32.682 47.1197 30.8775C47.0473 30.6667 47.0185 30.4433 47.0352 30.221C47.0519 29.9987 47.1136 29.7822 47.2166 29.5845C47.3197 29.3868 47.4619 29.2122 47.6345 29.0712C47.8072 28.9303 48.0068 28.8259 48.2211 28.7645C48.4354 28.7032 48.6599 28.686 48.881 28.7142C49.1022 28.7424 49.3153 28.8153 49.5073 28.9284C49.6994 29.0416 49.8664 29.1926 49.9982 29.3724C50.13 29.5522 50.2239 29.7569 50.2741 29.9741C51.2727 33.4686 51.083 37.1959 49.7347 40.571C48.3865 43.9462 45.9559 46.7782 42.8243 48.6229C39.6928 50.4676 36.0375 51.2206 32.4318 50.7636C28.8262 50.3067 25.4742 48.6657 22.9019 46.0981C20.3323 43.5264 18.6896 40.1741 18.2316 36.5676C17.7736 32.9612 18.5262 29.3047 20.3714 26.1723C22.2166 23.04 25.0498 20.6091 28.4262 19.2613C31.8026 17.9135 35.5309 17.7252 39.0259 18.7259C39.4421 18.8476 39.7932 19.129 40.0025 19.5087C40.2117 19.8884 40.2622 20.3356 40.1428 20.7524C40.0234 21.1692 39.7439 21.5218 39.3654 21.7331C38.9868 21.9445 38.54 21.9974 38.1225 21.8803C36.1681 21.3196 34.1103 21.2205 32.1111 21.5908C30.1119 21.9612 28.226 22.7908 26.6022 24.0144C24.9784 25.238 23.661 26.8221 22.7539 28.6417C21.8468 30.4613 21.3748 32.4668 21.375 34.5Z" fill="white"/>
<path d="M27.9375 34.4999C27.9376 35.6956 28.2642 36.8685 28.882 37.8922C29.4998 38.9159 30.3853 39.7515 31.4431 40.3089C32.5009 40.8663 33.6908 41.1243 34.8845 41.0551C36.0781 40.9859 37.2303 40.5921 38.2166 39.9162C39.2027 39.2386 39.9848 38.3043 40.4783 37.2143C40.9718 36.1243 41.1579 34.9202 41.0166 33.7321C40.9783 33.4438 41.0176 33.1505 41.1304 32.8824C41.2432 32.6144 41.4254 32.3812 41.6583 32.2069C41.8911 32.0327 42.1662 31.9237 42.4552 31.8911C42.7442 31.8585 43.0367 31.9035 43.3025 32.0215C43.5683 32.138 43.7984 32.3228 43.9694 32.5572C44.1404 32.7917 44.2462 33.0672 44.2759 33.3559C44.5136 35.3861 44.1134 37.4399 43.1308 39.2324C42.1482 41.0248 40.632 42.4669 38.7926 43.3585C36.9532 44.2501 34.8819 44.5469 32.8661 44.2079C30.8504 43.8688 28.9901 42.9107 27.5437 41.4664C26.0972 40.0221 25.1362 38.1633 24.7941 36.1481C24.4519 34.1328 24.7457 32.061 25.6345 30.2203C26.5233 28.3796 27.963 26.8612 29.754 25.8758C31.5449 24.8905 33.5982 24.4872 35.6287 24.7218C35.8462 24.742 36.0574 24.8053 36.25 24.9082C36.4426 25.0111 36.6128 25.1513 36.7505 25.3208C36.8882 25.4903 36.9906 25.6855 37.0519 25.8951C37.1132 26.1047 37.132 26.3244 37.1072 26.5414C37.0825 26.7583 37.0147 26.9682 36.9078 27.1586C36.8009 27.349 36.657 27.5161 36.4847 27.6502C36.3124 27.7843 36.115 27.8827 35.9041 27.9395C35.6933 27.9963 35.4732 28.0105 35.2569 27.9812C34.3374 27.8744 33.4057 27.9634 32.523 28.2422C31.6403 28.5211 30.8266 28.9836 30.1354 29.5992C29.4441 30.2149 28.8909 30.9698 28.5121 31.8144C28.1333 32.659 27.9375 33.5742 27.9375 34.4999Z" fill="white"/>
</svg>
