<svg width="90" height="90" viewBox="0 0 90 90" fill="none" xmlns="http://www.w3.org/2000/svg">
<rect width="90" height="90" rx="45" fill="#FF6C4C"/>
<path d="M50.9211 47.4828H40.0789C39.9865 47.4825 39.8949 47.5004 39.8095 47.5357C39.724 47.5709 39.6464 47.6227 39.581 47.688C39.5157 47.7534 39.4639 47.831 39.4287 47.9165C39.3934 48.0019 39.3755 48.0935 39.3758 48.1859V64.4633C39.3755 64.5557 39.3934 64.6473 39.4287 64.7327C39.4639 64.8182 39.5157 64.8958 39.581 64.9612C39.6464 65.0265 39.724 65.0783 39.8095 65.1135C39.8949 65.1487 39.9865 65.1667 40.0789 65.1664H50.9211C51.0135 65.1667 51.1051 65.1487 51.1906 65.1135C51.276 65.0783 51.3537 65.0265 51.419 64.9612C51.4844 64.8958 51.5361 64.8182 51.5714 64.7327C51.6066 64.6473 51.6246 64.5557 51.6242 64.4633V48.1859C51.6246 48.0935 51.6066 48.0019 51.5714 47.9165C51.5362 47.831 51.4844 47.7534 51.419 47.688C51.3537 47.6227 51.276 47.5709 51.1906 47.5357C51.1051 47.5004 51.0135 47.4825 50.9211 47.4828Z" fill="white"/>
<path d="M37.3648 52.9109H26.5156C26.1273 52.9109 25.8125 53.2257 25.8125 53.6141V64.4633C25.8125 64.8516 26.1273 65.1664 26.5156 65.1664H37.3648C37.7532 65.1664 38.068 64.8516 38.068 64.4633V53.6141C38.068 53.2257 37.7532 52.9109 37.3648 52.9109Z" fill="white"/>
<path d="M36.3453 37.8289C37.1187 37.7724 37.9076 37.8953 38.2367 38.7008C38.5797 39.491 38.0956 40.1508 37.5195 40.6555C37.4535 40.72 37.401 40.7971 37.3652 40.8823C37.3293 40.9674 37.3109 41.0588 37.3109 41.1512C37.3109 41.2435 37.3293 41.335 37.3652 41.4201C37.401 41.5052 37.4535 41.5823 37.5195 41.6469L39.5445 43.6719C39.6096 43.7371 39.6868 43.7888 39.7719 43.8241C39.8569 43.8594 39.9481 43.8776 40.0402 43.8776C40.1323 43.8776 40.2235 43.8594 40.3086 43.8241C40.3936 43.7888 40.4709 43.7371 40.5359 43.6719L40.9508 43.2641C41.1498 43.0704 41.4012 42.9393 41.6739 42.8869C41.9466 42.8346 42.2287 42.8633 42.4852 42.9695C42.7418 43.0757 42.9616 43.2548 43.1175 43.4846C43.2734 43.7144 43.3586 43.9849 43.3624 44.2625L43.3625 44.8461C43.363 45.0324 43.4373 45.211 43.569 45.3427C43.7008 45.4745 43.8793 45.5487 44.0656 45.5492H46.9344C47.1207 45.5487 47.2992 45.4745 47.4309 45.3427C47.5627 45.211 47.6369 45.0324 47.6375 44.8461V44.2625C47.6412 43.9848 47.7263 43.7143 47.8822 43.4844C48.0381 43.2545 48.2579 43.0754 48.5146 42.9691C48.7712 42.8629 49.0533 42.8342 49.3261 42.8866C49.5989 42.9391 49.8503 43.0703 50.0492 43.2641L50.464 43.6719C50.5291 43.7371 50.6063 43.7888 50.6914 43.8241C50.7765 43.8594 50.8677 43.8776 50.9598 43.8776C51.0518 43.8776 51.143 43.8594 51.2281 43.8241C51.3132 43.7888 51.3904 43.7371 51.4555 43.6719L53.4805 41.6469C53.5465 41.5823 53.599 41.5052 53.6349 41.4201C53.6707 41.335 53.6892 41.2435 53.6892 41.1512C53.6892 41.0588 53.6707 40.9674 53.6349 40.8822C53.599 40.7971 53.5465 40.72 53.4805 40.6555C53.2497 40.493 53.0567 40.2826 52.9148 40.0387C52.7728 39.7948 52.6851 39.5231 52.6578 39.2422C52.659 38.8678 52.8083 38.509 53.0731 38.2442C53.3379 37.9794 53.6966 37.8301 54.0711 37.8289H54.6547C54.841 37.8284 55.0195 37.7541 55.1513 37.6224C55.283 37.4906 55.3573 37.3121 55.3578 37.1258V34.2571C55.3573 34.0707 55.283 33.8922 55.1513 33.7605C55.0195 33.6287 54.841 33.5545 54.6547 33.5539C53.1501 33.8094 51.9824 32.3975 53.0726 31.1421L53.4805 30.7274C53.5465 30.6628 53.599 30.5857 53.6348 30.5006C53.6707 30.4154 53.6891 30.324 53.6891 30.2317C53.6891 30.1393 53.6707 30.0479 53.6348 29.9627C53.599 29.8776 53.5465 29.8005 53.4805 29.7359L51.4555 27.711C51.3904 27.6458 51.3132 27.594 51.2281 27.5587C51.143 27.5234 51.0518 27.5053 50.9598 27.5053C50.8677 27.5053 50.7765 27.5234 50.6914 27.5587C50.6064 27.594 50.5291 27.6458 50.4641 27.711L50.0492 28.1188C49.8503 28.3126 49.5989 28.4438 49.3261 28.4963C49.0533 28.5487 48.7712 28.52 48.5145 28.4138C48.2579 28.3075 48.0381 28.1284 47.8822 27.8985C47.7263 27.6686 47.6412 27.3981 47.6375 27.1203V26.5367C47.637 26.3504 47.5627 26.1719 47.431 26.0402C47.2992 25.9084 47.1207 25.8342 46.9344 25.8336H44.0656C43.8793 25.8342 43.7008 25.9084 43.569 26.0402C43.4373 26.1719 43.363 26.3504 43.3625 26.5367C43.419 27.3101 43.2961 28.0991 42.4905 28.4281C41.7007 28.7711 41.0404 28.287 40.536 27.7109C40.4709 27.6457 40.3936 27.594 40.3086 27.5587C40.2235 27.5234 40.1323 27.5053 40.0402 27.5053C39.9481 27.5053 39.857 27.5235 39.7719 27.5587C39.6868 27.594 39.6096 27.6458 39.5445 27.711L37.5195 29.736C37.4535 29.8005 37.4009 29.8776 37.3651 29.9627C37.3293 30.0479 37.3108 30.1393 37.3108 30.2317C37.3108 30.324 37.3293 30.4155 37.3651 30.5006C37.4009 30.5857 37.4535 30.6628 37.5195 30.7274C38.1015 31.2386 38.5754 31.8919 38.2366 32.6821C37.9135 33.4865 37.1103 33.611 36.3453 33.5539C36.159 33.5545 35.9804 33.6287 35.8487 33.7605C35.717 33.8922 35.6427 34.0708 35.6422 34.2571V37.1258C35.6427 37.3122 35.717 37.4907 35.8487 37.6224C35.9805 37.7542 36.159 37.8284 36.3453 37.8289ZM50.6117 35.6915C50.3726 42.4577 40.6258 42.4549 40.3883 35.6914C40.627 28.9258 50.374 28.9275 50.6117 35.6915Z" fill="white"/>
<path d="M49.2055 35.6914C49.0449 30.7967 41.9558 30.7956 41.7945 35.6913C41.9504 40.5871 49.0489 40.5883 49.2055 35.6914Z" fill="white"/>
<path d="M26.7828 45.7883C26.9423 45.9051 27.0608 46.0693 27.1214 46.2574C27.182 46.4455 27.1816 46.648 27.1203 46.8359C26.9674 47.3049 26.9671 47.8103 27.1194 48.2795C27.2716 48.7486 27.5687 49.1575 27.9679 49.4473C28.367 49.7371 28.8477 49.8929 29.341 49.8924C29.8343 49.8919 30.3147 49.7351 30.7133 49.4445C30.8724 49.328 31.0645 49.2652 31.2617 49.2652C31.4589 49.2652 31.651 49.328 31.8102 49.4444C32.2104 49.7295 32.6901 49.8814 33.1815 49.8789C33.6729 49.8763 34.151 49.7194 34.5482 49.4302C34.9455 49.141 35.2418 48.7342 35.3952 48.2674C35.5486 47.8006 35.5514 47.2974 35.4031 46.8289C35.342 46.6414 35.3424 46.4392 35.4044 46.252C35.4664 46.0648 35.5867 45.9023 35.7477 45.7883C36.141 45.4948 36.4323 45.0854 36.5808 44.6177C36.7292 44.1499 36.7272 43.6474 36.575 43.1809C36.4229 42.7143 36.1282 42.3072 35.7326 42.0169C35.337 41.7266 34.8602 41.5677 34.3695 41.5625C34.1749 41.5637 33.9849 41.5031 33.8269 41.3894C33.669 41.2757 33.5512 41.1148 33.4906 40.9298C33.3353 40.4628 33.0372 40.0565 32.6383 39.7682C32.2394 39.48 31.7599 39.3245 31.2678 39.3237C30.7757 39.3229 30.2958 39.4769 29.8959 39.7638C29.4961 40.0508 29.1966 40.4562 29.0398 40.9227C28.9784 41.109 28.8597 41.2713 28.7006 41.3862C28.5416 41.5011 28.3502 41.5628 28.154 41.5625C27.6629 41.5671 27.1857 41.726 26.7898 42.0166C26.3939 42.3072 26.0994 42.7149 25.9478 43.182C25.7962 43.6491 25.7953 44.1521 25.9451 44.6198C26.095 45.0874 26.388 45.4962 26.7828 45.7883Z" fill="white"/>
<path d="M64.4844 52.9109H53.6352C53.2468 52.9109 52.932 53.2257 52.932 53.6141V64.4633C52.932 64.8516 53.2468 65.1664 53.6352 65.1664H64.4844C64.8727 65.1664 65.1875 64.8516 65.1875 64.4633V53.6141C65.1875 53.2257 64.8727 52.9109 64.4844 52.9109Z" fill="white"/>
<path d="M54.4086 43.1797C54.2494 43.648 54.2462 44.1554 54.3996 44.6257C54.553 45.096 54.8546 45.5039 55.2594 45.7883C55.4188 45.9051 55.5373 46.0692 55.5979 46.2573C55.6585 46.4455 55.6582 46.6479 55.5969 46.8358C55.4499 47.304 55.4538 47.8064 55.6078 48.2723C55.7618 48.7382 56.0583 49.1439 56.4553 49.4321C56.8524 49.7204 57.3299 49.8767 57.8206 49.8789C58.3113 49.8811 58.7902 49.7292 59.1899 49.4445C59.349 49.328 59.5411 49.2652 59.7383 49.2652C59.9355 49.2652 60.1276 49.328 60.2867 49.4444C60.687 49.7295 61.1667 49.8814 61.6581 49.8789C62.1494 49.8763 62.6276 49.7193 63.0248 49.4302C63.4221 49.141 63.7184 48.7342 63.8718 48.2674C64.0252 47.8006 64.028 47.2974 63.8797 46.8289C63.8185 46.6414 63.819 46.4392 63.881 46.252C63.9429 46.0648 64.0632 45.9023 64.2241 45.7883C64.6175 45.4948 64.9088 45.0854 65.0573 44.6177C65.2057 44.1499 65.2037 43.6474 65.0516 43.1809C64.8994 42.7143 64.6048 42.3072 64.2092 42.0169C63.8135 41.7266 63.3368 41.5677 62.8461 41.5625C62.6489 41.5627 62.4567 41.5001 62.2975 41.3838C62.1382 41.2676 62.0201 41.1036 61.9602 40.9157C61.8028 40.4508 61.5034 40.047 61.1044 39.7613C60.7053 39.4755 60.2266 39.3222 59.7358 39.323C59.245 39.3238 58.7668 39.4786 58.3686 39.7655C57.9704 40.0525 57.6724 40.4573 57.5164 40.9226C57.455 41.109 57.3363 41.2713 57.1772 41.3862C57.0181 41.5011 56.8267 41.5628 56.6305 41.5625C56.1352 41.5562 55.6512 41.7104 55.2508 42.0018C54.8503 42.2933 54.5549 42.7065 54.4086 43.1797Z" fill="white"/>
</svg>
