<svg width="70" height="70" viewBox="0 0 70 70" fill="none" xmlns="http://www.w3.org/2000/svg">
<rect width="70" height="70" rx="35" fill="#4C40F7"/>
<path fill-rule="evenodd" clip-rule="evenodd" d="M37.5968 21.7177V21.7177L37.6532 22.2821C37.8166 23.9156 37.8982 24.7324 38.451 24.9614C39.0039 25.1904 39.6392 24.6706 40.9097 23.631L41.3487 23.2719C42.0144 22.7272 42.3473 22.4548 42.7321 22.474C43.117 22.4932 43.4211 22.7973 44.0294 23.4056L45.5945 24.9707C46.2027 25.5789 46.5068 25.883 46.526 26.2679C46.5452 26.6527 46.2729 26.9856 45.7282 27.6514L45.369 28.0903C44.3294 29.3609 43.8096 29.9962 44.0386 30.549C44.2676 31.1018 45.0844 31.1835 46.7179 31.3469L47.2823 31.4033C48.1383 31.4889 48.5662 31.5317 48.8248 31.8174C49.0833 32.1031 49.0833 32.5332 49.0833 33.3934V35.6068C49.0833 36.467 49.0833 36.8971 48.8248 37.1828C48.5662 37.4685 48.1383 37.5113 47.2824 37.5968H47.2823L46.7185 37.6532C45.0849 37.8166 44.2682 37.8983 44.0392 38.4511C43.8102 39.0039 44.33 39.6392 45.3696 40.9098L45.7282 41.3482C46.2729 42.0139 46.5453 42.3468 46.5261 42.7316C46.5069 43.1165 46.2028 43.4206 45.5945 44.0288L45.5945 44.0289L44.0294 45.5939L44.0294 45.594C43.4212 46.2022 43.117 46.5063 42.7322 46.5255C42.3474 46.5447 42.0145 46.2724 41.3487 45.7276L40.9098 45.3685C39.6392 44.329 39.0039 43.8092 38.4511 44.0381C37.8983 44.2671 37.8166 45.0839 37.6533 46.7174L37.5968 47.2824V47.2824C37.5112 48.1384 37.4684 48.5663 37.1827 48.8249C36.897 49.0834 36.4669 49.0834 35.6067 49.0834H33.3933C32.5331 49.0834 32.103 49.0834 31.8173 48.8249C31.5316 48.5663 31.4888 48.1383 31.4032 47.2824L31.3468 46.718C31.1834 45.0845 31.1018 44.2677 30.5489 44.0387C29.9961 43.8097 29.3608 44.3295 28.0902 45.3691L27.6512 45.7283C26.9855 46.273 26.6526 46.5454 26.2677 46.5262C25.8829 46.507 25.5788 46.2029 24.9705 45.5946L23.4054 44.0295C22.7972 43.4213 22.493 43.1171 22.4738 42.7323C22.4547 42.3475 22.727 42.0146 23.2717 41.3488L23.6309 40.9098C24.6705 39.6392 25.1903 39.0039 24.9613 38.4511C24.7323 37.8983 23.9155 37.8166 22.282 37.6533L21.7177 37.5968H21.7176C20.8617 37.5113 20.4338 37.4685 20.1752 37.1828C19.9167 36.8971 19.9167 36.467 19.9167 35.6068L19.9167 33.3934C19.9167 32.5332 19.9167 32.1031 20.1752 31.8174C20.4338 31.5317 20.8617 31.4889 21.7177 31.4033L22.2825 31.3468C23.9161 31.1835 24.7328 31.1018 24.9618 30.549C25.1908 29.9962 24.671 29.3609 23.6314 28.0903L23.2718 27.6507C22.7271 26.9849 22.4547 26.6521 22.4739 26.2672C22.4931 25.8824 22.7972 25.5783 23.4055 24.97L24.9706 23.4049C25.5788 22.7967 25.883 22.4925 26.2678 22.4733C26.6526 22.4541 26.9855 22.7265 27.6513 23.2712L28.0903 23.6304C29.3609 24.67 29.9962 25.1898 30.549 24.9608C31.1018 24.7318 31.1835 23.915 31.3469 22.2815L31.4032 21.7177C31.4888 20.8618 31.5316 20.4338 31.8173 20.1753C32.103 19.9167 32.5331 19.9167 33.3933 19.9167H35.6067C36.4669 19.9167 36.897 19.9167 37.1827 20.1753C37.4684 20.4338 37.5112 20.8618 37.5968 21.7177ZM34.5 40.3334C37.7217 40.3334 40.3333 37.7217 40.3333 34.5001C40.3333 31.2784 37.7217 28.6667 34.5 28.6667C31.2783 28.6667 28.6667 31.2784 28.6667 34.5001C28.6667 37.7217 31.2783 40.3334 34.5 40.3334Z" fill="white"/>
</svg>
