<svg width="70" height="70" viewBox="0 0 70 70" fill="none" xmlns="http://www.w3.org/2000/svg">
<rect width="70" height="70" rx="35" fill="#FF6C4C"/>
<g clip-path="url(#clip0_1155_14351)">
<path d="M23.0294 33.125C24.8788 33.125 26.3824 31.4434 26.3824 29.375C26.3824 27.3066 24.8788 25.625 23.0294 25.625C21.1801 25.625 19.6765 27.3066 19.6765 29.375C19.6765 31.4434 21.1801 33.125 23.0294 33.125ZM46.5 33.125C48.3494 33.125 49.8529 31.4434 49.8529 29.375C49.8529 27.3066 48.3494 25.625 46.5 25.625C44.6506 25.625 43.1471 27.3066 43.1471 29.375C43.1471 31.4434 44.6506 33.125 46.5 33.125ZM48.1765 35H44.8235C43.9015 35 43.0685 35.416 42.4608 36.0898C44.5721 37.3848 46.0704 39.7227 46.3952 42.5H49.8529C50.7802 42.5 51.5294 41.6621 51.5294 40.625V38.75C51.5294 36.6816 50.0258 35 48.1765 35ZM34.7647 35C38.0076 35 40.6324 32.0645 40.6324 28.4375C40.6324 24.8105 38.0076 21.875 34.7647 21.875C31.5218 21.875 28.8971 24.8105 28.8971 28.4375C28.8971 32.0645 31.5218 35 34.7647 35ZM38.7882 36.875H38.3534C37.2637 37.4609 36.0535 37.8125 34.7647 37.8125C33.4759 37.8125 32.271 37.4609 31.176 36.875H30.7412C27.4092 36.875 24.7059 39.8984 24.7059 43.625V45.3125C24.7059 46.8652 25.8323 48.125 27.2206 48.125H42.3088C43.6972 48.125 44.8235 46.8652 44.8235 45.3125V43.625C44.8235 39.8984 42.1202 36.875 38.7882 36.875ZM27.0687 36.0898C26.4609 35.416 25.6279 35 24.7059 35H21.3529C19.5036 35 18 36.6816 18 38.75V40.625C18 41.6621 18.7492 42.5 19.6765 42.5H23.129C23.459 39.7227 24.9574 37.3848 27.0687 36.0898Z" fill="white"/>
</g>
<defs>
<clipPath id="clip0_1155_14351">
<rect width="33.5294" height="30" fill="white" transform="translate(18 20)"/>
</clipPath>
</defs>
</svg>
