<svg width="70" height="70" viewBox="0 0 70 70" fill="none" xmlns="http://www.w3.org/2000/svg">
<rect width="70" height="70" rx="35" fill="#50CA17"/>
<path d="M34.7708 34.8559C39.2006 34.8559 42.7917 31.2648 42.7917 26.835C42.7917 22.4053 39.2006 18.8142 34.7708 18.8142C30.341 18.8142 26.75 22.4053 26.75 26.835C26.75 31.2648 30.341 34.8559 34.7708 34.8559Z" fill="white"/>
<path fill-rule="evenodd" clip-rule="evenodd" d="M34.4062 48.7276V45.7307C34.4062 45.0526 34.6746 44.4037 35.1544 43.9253L38.0564 41.0232C37.985 39.4424 38.4283 37.8412 39.3806 36.4937C37.9325 36.2472 36.3823 36.113 34.7708 36.113C29.9262 36.113 25.6373 37.3249 22.9744 39.1405C20.9429 40.526 19.8229 42.2862 19.8229 44.1339V46.2485C19.8229 46.9062 20.0839 47.5376 20.5492 48.0014C21.0144 48.4666 21.6444 48.7276 22.3021 48.7276H34.4062Z" fill="white"/>
<path fill-rule="evenodd" clip-rule="evenodd" d="M44.4716 46.4699C46.2391 46.7353 48.1073 46.187 49.4679 44.8264C51.7458 42.5485 51.7458 38.8501 49.4679 36.5737C47.1914 34.2958 43.4931 34.2958 41.2152 36.5737C39.8546 37.9343 39.3062 39.8024 39.5716 41.5714L36.1854 44.9562C35.9798 45.1618 35.8646 45.4403 35.8646 45.7305V49.0833C35.8646 49.687 36.3546 50.177 36.9583 50.177H40.311C40.6012 50.177 40.8798 50.0618 41.0854 49.8562L44.4716 46.4699ZM44.2237 41.8178C43.6069 41.201 43.6069 40.1991 44.2237 39.5822C44.8406 38.9653 45.8425 38.9653 46.4594 39.5822C47.0762 40.1991 47.0762 41.201 46.4594 41.8178C45.8425 42.4347 44.8406 42.4347 44.2237 41.8178Z" fill="white"/>
</svg>
