<svg width="70" height="70" viewBox="0 0 70 70" fill="none" xmlns="http://www.w3.org/2000/svg">
<rect width="70" height="70" rx="35" fill="#BD63F9"/>
<g clip-path="url(#clip0_1170_10473)">
<path d="M52.223 31.4549L48.2083 30.4675C47.967 29.7065 47.6566 28.9685 47.282 28.2625C47.8848 27.2592 49.1516 25.1473 49.1516 25.1473C49.3939 24.7438 49.3298 24.2271 48.9974 23.8947L46.0974 20.9947C45.765 20.6613 45.2493 20.5972 44.8447 20.8405L41.7245 22.7101C41.0225 22.3385 40.2885 22.0311 39.5325 21.7918L38.5452 17.7771C38.431 17.3205 38.0214 17 37.5508 17H33.4492C32.9786 17 32.568 17.3205 32.4549 17.777C32.4549 17.777 31.7709 20.5791 31.4685 21.7908C30.6624 22.0461 29.8834 22.3776 29.1413 22.7821L25.906 20.8405C25.5014 20.6001 24.9867 20.6623 24.6533 20.9947L21.7533 23.8947C21.4209 24.2271 21.3568 24.7438 21.5991 25.1473L23.5999 28.4889C23.2774 29.1248 23.0071 29.7866 22.7918 30.4645L18.7771 31.4549C18.3205 31.569 18 31.9786 18 32.4492V36.5508C18 37.0214 18.3205 37.432 18.777 37.5451L22.7927 38.5325C23.0361 39.3045 23.3525 40.0545 23.736 40.7745L21.9456 43.7585C21.7033 44.1621 21.7674 44.6788 22.0999 45.0112L24.9998 47.9112C25.3313 48.2426 25.8479 48.3057 26.2525 48.0654C26.2525 48.0654 28.2602 46.8618 29.2435 46.2729C29.9555 46.6525 30.7005 46.9659 31.4686 47.2092L32.4549 51.2229C32.568 51.6796 32.9786 52 33.4492 52H37.5508C38.0214 52 38.431 51.6795 38.5451 51.223L39.5315 47.2092C40.3216 46.9589 41.0826 46.6354 41.8066 46.2429C42.8169 46.8487 44.8447 48.0654 44.8447 48.0654C45.2482 48.3067 45.7649 48.2446 46.0973 47.9112L48.9973 45.0112C49.3297 44.6788 49.3938 44.1621 49.1515 43.7585L47.308 40.6873C47.6715 39.9974 47.9729 39.2754 48.2082 38.5325L52.2229 37.5451C52.6796 37.431 53 37.0214 53 36.5508V32.4492C53 31.9786 52.6796 31.569 52.223 31.4549ZM35.5 41.6777C31.5426 41.6777 28.3223 38.4574 28.3223 34.5C28.3223 30.5426 31.5426 27.3223 35.5 27.3223C39.4574 27.3223 42.6777 30.5426 42.6777 34.5C42.6777 38.4574 39.4574 41.6777 35.5 41.6777Z" fill="white"/>
</g>
<defs>
<clipPath id="clip0_1170_10473">
<rect width="35" height="35" fill="white" transform="translate(18 17)"/>
</clipPath>
</defs>
</svg>
