<svg width="90" height="90" viewBox="0 0 90 90" fill="none" xmlns="http://www.w3.org/2000/svg">
<rect width="90" height="90" rx="45" fill="#50CA17"/>
<g clip-path="url(#clip0_1170_10234)">
<path d="M60.5586 35.0585C60.5586 26.7552 53.8034 20 45.5 20C37.1967 20 30.4414 26.7552 30.4414 35.0585C30.4414 43.3619 37.1966 50.1171 45.4999 50.1171C53.8033 50.1171 60.5586 43.3619 60.5586 35.0585ZM39.6582 38.6644H42.6463C42.6463 39.6996 43.4885 40.5419 44.5238 40.5419H46.4427C47.5114 40.5419 48.381 39.6724 48.381 38.6036C48.381 37.5349 47.5115 36.6653 46.4427 36.6653H44.5574C41.841 36.6653 39.631 34.4553 39.631 31.739C39.631 29.209 41.5483 27.1193 44.006 26.8442V24.3577H46.9941V26.8498C49.4321 27.1445 51.3279 29.225 51.3279 31.7411H48.3398C48.3398 30.6712 47.4694 29.8008 46.3996 29.8008H44.5575C43.4887 29.8008 42.6192 30.6702 42.6192 31.739C42.6192 32.8077 43.4887 33.6772 44.5575 33.6772H46.4428C49.1592 33.6772 51.3692 35.8872 51.3692 38.6035C51.3692 41.1334 49.4519 43.2231 46.9942 43.4982V45.9848H44.0061V43.502C41.5657 43.2427 39.6582 41.1723 39.6582 38.6644Z" fill="white"/>
<path d="M55.4316 50.1188C52.5808 52.005 49.1667 53.1053 45.5 53.1053C41.8333 53.1053 38.4191 52.0051 35.5685 50.1188V56.659H30.4859V58.8194L45.5 71L60.514 58.8194V56.659H55.4315L55.4316 50.1188Z" fill="white"/>
</g>
<defs>
<clipPath id="clip0_1170_10234">
<rect width="51" height="51" fill="white" transform="translate(20 20)"/>
</clipPath>
</defs>
</svg>
