<svg width="70" height="70" viewBox="0 0 70 70" fill="none" xmlns="http://www.w3.org/2000/svg">
<rect width="70" height="70" rx="35" fill="#50CA17"/>
<g clip-path="url(#clip0_1170_10286)">
<path d="M20.0882 48.6594H48.9118V51.9852H20.0882V48.6594Z" fill="white"/>
<path d="M23.1765 43.1165H45.8235V46.4423H23.1765V43.1165Z" fill="white"/>
<path d="M26.2647 37.5735H42.7353V40.8992H26.2647V37.5735Z" fill="white"/>
<path d="M28.7695 34.6512L34.5 31.6385L40.2305 34.6512L39.1361 28.2703L43.7721 23.7513L37.3652 22.8203L34.5 17.0146L31.6348 22.8203L25.228 23.7513L29.8639 28.2703L28.7695 34.6512Z" fill="white"/>
<path d="M47.8824 25.2205H52V27.2793H47.8824V25.2205Z" fill="white"/>
<path d="M45.2677 32.3035L46.7233 30.8479L49.6344 33.7591L48.1789 35.2146L45.2677 32.3035Z" fill="white"/>
<path d="M45.269 20.2012L48.1802 17.2899L49.6358 18.7455L46.7246 21.6568L45.269 20.2012Z" fill="white"/>
<path d="M17 25.2205H21.1176V27.2793H17V25.2205Z" fill="white"/>
<path d="M19.3581 33.7566L22.2692 30.8455L23.7248 32.3011L20.8137 35.2122L19.3581 33.7566Z" fill="white"/>
<path d="M19.3598 18.7427L20.8154 17.287L23.7266 20.1983L22.271 21.6539L19.3598 18.7427Z" fill="white"/>
</g>
<defs>
<clipPath id="clip0_1170_10286">
<rect width="35" height="35" fill="white" transform="translate(17 17)"/>
</clipPath>
</defs>
</svg>
