<svg width="70" height="70" viewBox="0 0 70 70" fill="none" xmlns="http://www.w3.org/2000/svg">
<rect width="70" height="70" rx="35" fill="#FEAE32"/>
<g clip-path="url(#clip0_1170_10271)">
<path d="M35.2533 20.4863C35.1724 18.5504 33.5726 17 31.6171 17C29.6614 17 28.0616 18.5504 27.9807 20.4863H30.0353C30.113 19.6818 30.7925 19.0508 31.6171 19.0508C32.4415 19.0508 33.1213 19.6818 33.1987 20.4863H30.0353C30.0304 20.5371 30.0278 20.5883 30.0278 20.6401V28.3989C30.0278 29.2753 30.7407 29.9883 31.6171 29.9883C32.4935 29.9883 33.2065 29.2753 33.2065 28.3989V24.5195H35.2573V28.3989C35.2573 30.4062 33.6241 32.0391 31.6171 32.0391C29.6099 32.0391 27.977 30.4062 27.977 28.3989V20.6401C27.977 20.5886 27.9786 20.5373 27.9807 20.4863H23.8105V52H47.1895V20.4863H35.2533ZM39.7313 47.284L35.5 45.0597L31.2687 47.284L32.077 42.5725L28.6539 39.2358L33.3843 38.5484L35.5 34.2618L37.6157 38.5484L42.3461 39.2358L38.923 42.5725L39.7313 47.284Z" fill="white"/>
</g>
<defs>
<clipPath id="clip0_1170_10271">
<rect width="35" height="35" fill="white" transform="translate(18 17)"/>
</clipPath>
</defs>
</svg>
