<svg width="70" height="70" viewBox="0 0 70 70" fill="none" xmlns="http://www.w3.org/2000/svg">
<rect width="70" height="70" rx="35" fill="#3DBAFE"/>
<path d="M46.5156 32.2051H37.7949V23.4844C37.7949 22.2167 36.7677 21.1895 35.5 21.1895C34.2323 21.1895 33.2051 22.2167 33.2051 23.4844V32.2051H24.4844C23.2167 32.2051 22.1895 33.2323 22.1895 34.5C22.1895 35.7677 23.2167 36.7949 24.4844 36.7949H33.2051V45.5156C33.2051 46.7833 34.2323 47.8105 35.5 47.8105C36.7677 47.8105 37.7949 46.7833 37.7949 45.5156V36.7949H46.5156C47.7833 36.7949 48.8105 35.7677 48.8105 34.5C48.8105 33.2323 47.7833 32.2051 46.5156 32.2051Z" fill="white"/>
</svg>
