<svg width="70" height="70" viewBox="0 0 70 70" fill="none" xmlns="http://www.w3.org/2000/svg">
<rect width="70" height="70" rx="35" fill="#50CA17"/>
<path d="M26.75 34.5001C26.75 36.1109 25.4442 37.4167 23.8333 37.4167C22.2225 37.4167 20.9167 36.1109 20.9167 34.5001C20.9167 32.8892 22.2225 31.5834 23.8333 31.5834C25.4442 31.5834 26.75 32.8892 26.75 34.5001Z" stroke="white" stroke-width="2"/>
<path d="M38.4167 34.5001C38.4167 36.1109 37.1108 37.4167 35.5 37.4167C33.8892 37.4167 32.5833 36.1109 32.5833 34.5001C32.5833 32.8892 33.8892 31.5834 35.5 31.5834C37.1108 31.5834 38.4167 32.8892 38.4167 34.5001Z" stroke="white" stroke-width="2"/>
<path d="M50.0833 34.5001C50.0833 36.1109 48.7775 37.4167 47.1667 37.4167C45.5558 37.4167 44.25 36.1109 44.25 34.5001C44.25 32.8892 45.5558 31.5834 47.1667 31.5834C48.7775 31.5834 50.0833 32.8892 50.0833 34.5001Z" stroke="white" stroke-width="2"/>
<path d="M26.75 22.8334C26.75 24.4442 25.4442 25.7501 23.8333 25.7501C22.2225 25.7501 20.9167 24.4442 20.9167 22.8334C20.9167 21.2226 22.2225 19.9167 23.8333 19.9167C25.4442 19.9167 26.75 21.2226 26.75 22.8334Z" stroke="white" stroke-width="2"/>
<path d="M38.4167 22.8334C38.4167 24.4442 37.1108 25.7501 35.5 25.7501C33.8892 25.7501 32.5833 24.4442 32.5833 22.8334C32.5833 21.2226 33.8892 19.9167 35.5 19.9167C37.1108 19.9167 38.4167 21.2226 38.4167 22.8334Z" stroke="white" stroke-width="2"/>
<path d="M50.0833 22.8334C50.0833 24.4442 48.7775 25.7501 47.1667 25.7501C45.5558 25.7501 44.25 24.4442 44.25 22.8334C44.25 21.2226 45.5558 19.9167 47.1667 19.9167C48.7775 19.9167 50.0833 21.2226 50.0833 22.8334Z" stroke="white" stroke-width="2"/>
<path d="M26.75 46.1667C26.75 47.7776 25.4442 49.0834 23.8333 49.0834C22.2225 49.0834 20.9167 47.7776 20.9167 46.1667C20.9167 44.5559 22.2225 43.2501 23.8333 43.2501C25.4442 43.2501 26.75 44.5559 26.75 46.1667Z" stroke="white" stroke-width="2"/>
<path d="M38.4167 46.1667C38.4167 47.7776 37.1108 49.0834 35.5 49.0834C33.8892 49.0834 32.5833 47.7776 32.5833 46.1667C32.5833 44.5559 33.8892 43.2501 35.5 43.2501C37.1108 43.2501 38.4167 44.5559 38.4167 46.1667Z" stroke="white" stroke-width="2"/>
<path d="M50.0833 46.1667C50.0833 47.7776 48.7775 49.0834 47.1667 49.0834C45.5558 49.0834 44.25 47.7776 44.25 46.1667C44.25 44.5559 45.5558 43.2501 47.1667 43.2501C48.7775 43.2501 50.0833 44.5559 50.0833 46.1667Z" stroke="white" stroke-width="2"/>
</svg>
